<svg viewBox="0 0 16 16"><circle cx="8" cy="8" fill="#19a2ff" r="8"/><circle cx="8" cy="8" fill="#53b2ff" r="7.5"/><path d="m7 4v2h-1s-1 0-1 1v2s0 1 1 1h1.7v-6zm6.5 1-1.5 6h.5l1.5-6zm1 0-1.5 6h.5l1.5-6zm-12.2 1v.6l.7 1.4-.7 1.4v.6h.7v-.6l.5-1 .5 1v.6h.7v-.6l-.7-1.4.7-1.4v-.6h-.7v.6l-.5 1-.5-1v-.6zm6.7 0s-1 0-1 1v2s0 1 1 1h1v.5s0 .5-.5.5h-1.5v.6h1.8s.9 0 .9-1v-4.6zm2.3 0v.7h.7v-.7zm-5.1.6h.8v2.8h-.8s-.5 0-.5-.5v-1.8s0-.5.5-.5zm3 0h.8v2.8h-.8s-.5 0-.5-.5v-1.8s0-.5.5-.5zm2.1 2.7v.7h.7v-.7z" fill="#fff"/></svg>
